<svg width="55" height="55" viewBox="0 0 55 55" fill="none" xmlns="http://www.w3.org/2000/svg">
<g clip-path="url(#clip0)">
<path d="M9.16667 0C4.08833 0 0 4.08827 0 9.16654V45.8332C0 50.9115 4.08833 55 9.16667 55H45.8333C50.9117 55 55 50.9115 55 45.8332V9.16654C55 4.08827 50.9117 0 45.8333 0H9.16667ZM27.8178 10.3169C28.5083 10.2996 29.2209 10.3183 29.9573 10.3777C35.3904 10.7986 39.8524 14.8204 40.6457 20.0948C41.3981 25.0977 39.101 32.2589 33.8827 34.3552C27.808 36.7954 25.2889 32.6453 25.2889 32.6453C25.2889 32.6453 24.493 36.0557 23.8521 38.4506C23.4342 40.0124 21.8846 42.4134 20.8756 43.9066C20.1463 44.9859 19.8783 44.993 19.7164 43.6692C19.3043 40.3006 19.7004 37.8664 19.9357 36.8972C20.2055 35.784 22.4735 26.0657 22.4735 26.0657C20.7562 22.9411 22.4621 17.2461 26.099 18C30.0107 18.8107 27.802 23.9055 27.039 26.1952C26.2757 28.485 26.1458 30.4544 28.5787 31.5039C31.0116 32.5533 35.7628 30.4607 35.9057 21.2539C36.049 12.047 23.5223 11.8024 19.8014 17.4315C16.0177 23.0213 19.2494 26.9639 19.4075 27.1039C19.7567 27.4131 19.7012 27.777 19.6492 27.9857L19.2151 29.7313C19.1867 29.8448 18.9625 30.661 17.8365 30.0448C16.974 29.5728 15.7272 28.7209 14.8421 26.6118C12.3393 18.936 17.4598 10.5818 27.8178 10.3195L27.8178 10.3169Z" fill="#B69189"/>
</g>
<defs>
<clipPath id="clip0">
<rect width="55" height="55" fill="white"/>
</clipPath>
</defs>
</svg>
