<svg width="55" height="55" viewBox="0 0 55 55" fill="none" xmlns="http://www.w3.org/2000/svg">
<g clip-path="url(#clip0)">
<path d="M9.16667 0C4.08833 0 0 4.08827 0 9.16654V45.8332C0 50.9115 4.08833 55 9.16667 55H45.8333C50.9117 55 55 50.9115 55 45.8332V9.16654C55 4.08827 50.9117 0 45.8333 0H9.16667ZM16.7668 10.3124H38.2332C41.7659 10.3124 44.6875 13.234 44.6875 16.7667V38.2331C44.6875 41.7657 41.7659 44.6874 38.2332 44.6874H16.7668C13.2341 44.6874 10.3125 41.7657 10.3125 38.2331V16.7667C10.3125 13.234 13.2341 10.3124 16.7668 10.3124ZM16.7668 14.6093C15.5397 14.6093 14.6094 15.5396 14.6094 16.7667V38.2331C14.6094 39.4602 15.5397 40.3905 16.7668 40.3905H38.2332C39.4603 40.3905 40.3951 39.4602 40.3951 38.2331V16.7667C40.3951 15.5396 39.4603 14.6093 38.2332 14.6093H16.7668ZM36.0938 16.7622C36.6628 16.7621 37.2087 16.9877 37.6115 17.3897C38.0143 17.7917 38.2411 18.3371 38.2422 18.9061C38.2423 19.1883 38.1867 19.4678 38.0788 19.7285C37.9709 19.9892 37.8126 20.226 37.6131 20.4255C37.4136 20.625 37.1767 20.7833 36.916 20.8912C36.6553 20.9992 36.3759 21.0546 36.0938 21.0546C35.8116 21.0546 35.5322 20.9992 35.2715 20.8912C35.0108 20.7833 34.7739 20.625 34.5744 20.4255C34.3749 20.226 34.2166 19.9892 34.1087 19.7285C34.0008 19.4678 33.9452 19.1883 33.9453 18.9061C33.9464 18.3371 34.1732 17.7917 34.576 17.3897C34.9788 16.9877 35.5247 16.7621 36.0938 16.7622ZM27.5 18.9061C32.2196 18.9061 36.0938 22.7803 36.0938 27.4999C36.0938 32.2195 32.2196 36.0936 27.5 36.0936C22.7804 36.0936 18.9062 32.2195 18.9062 27.4999C18.9062 22.7803 22.7804 18.9061 27.5 18.9061ZM27.5 23.1985C25.102 23.1985 23.2031 25.1019 23.2031 27.4999C23.2031 29.8979 25.102 31.7968 27.5 31.7968C29.898 31.7968 31.7969 29.8979 31.7969 27.4999C31.7969 25.1019 29.898 23.1985 27.5 23.1985Z" fill="#B69189"/>
</g>
<defs>
<clipPath id="clip0">
<rect width="55" height="55" fill="white"/>
</clipPath>
</defs>
</svg>
