<svg width="55" height="55" viewBox="0 0 55 55" fill="none" xmlns="http://www.w3.org/2000/svg">
<g clip-path="url(#clip0)">
<path d="M9.16667 0C4.08833 0 0 4.08827 0 9.16654V45.8332C0 50.9115 4.08833 55 9.16667 55H45.8333C50.9117 55 55 50.9115 55 45.8332V9.16654C55 4.08827 50.9117 0 45.8333 0H9.16667ZM27.5 15.6074C44.3792 15.6074 44.7057 15.8084 44.6875 27.4999C44.7059 39.1913 44.3792 39.3924 27.5 39.3924C10.6208 39.3924 10.2943 39.1914 10.3125 27.4999C10.2941 15.8085 10.6208 15.6074 27.5 15.6074ZM24.2371 22.1737V32.8263L32.7547 27.4999L24.2371 22.1737Z" fill="#B69189"/>
</g>
<defs>
<clipPath id="clip0">
<rect width="55" height="55" fill="white"/>
</clipPath>
</defs>
</svg>
