<svg width="55" height="55" viewBox="0 0 55 55" fill="none" xmlns="http://www.w3.org/2000/svg">
<g clip-path="url(#clip0)">
<path d="M9.16667 0C4.08833 0 0 4.08827 0 9.16654V45.8332C0 50.9115 4.08833 55 9.16667 55H45.8333C50.9117 55 55 50.9115 55 45.8332V9.16654C55 4.08827 50.9117 0 45.8333 0H9.16667ZM30.7629 10.3124H36.0938V16.0506H32.2758C31.4114 16.0506 30.284 16.3305 30.284 18.1991V22.317H36.0938L35.2388 28.5339H30.284V44.6874H24.0715V28.5339H18.9062V22.317H24.0715V16.9951C24.0715 13.3417 27.1095 10.3124 30.7629 10.3124Z" fill="#B69189"/>
</g>
<defs>
<clipPath id="clip0">
<rect width="55" height="55" fill="white"/>
</clipPath>
</defs>
</svg>
